<svg xmlns="http://www.w3.org/2000/svg" xmlns:xlink="http://www.w3.org/1999/xlink" viewBox="0 0 1366 768"><defs><style>.cls-1{fill:#16081e;}.cls-2{fill:url(#radial-gradient);}.cls-3{fill:url(#radial-gradient-2);}.cls-4{fill:url(#radial-gradient-3);}.cls-5{fill:url(#radial-gradient-4);}.cls-6{fill:url(#radial-gradient-5);}</style><radialGradient id="radial-gradient" cx="684.66" cy="381.6" r="488.79" gradientUnits="userSpaceOnUse"><stop offset="0.03" stop-color="#2c2c44"/><stop offset="1" stop-color="#16081e"/></radialGradient><radialGradient id="radial-gradient-2" cx="863.4" cy="435.72" r="130.2" gradientUnits="userSpaceOnUse"><stop offset="0" stop-color="#2c2c44"/><stop offset="1" stop-color="#16081e"/></radialGradient><radialGradient id="radial-gradient-3" cx="128.09" cy="507.21" r="192.71" xlink:href="#radial-gradient-2"/><radialGradient id="radial-gradient-4" cx="1322.83" cy="385.86" r="186.69" xlink:href="#radial-gradient-2"/><radialGradient id="radial-gradient-5" cx="568.26" cy="546.02" fx="420.5361494822844" fy="517.5077315178589" r="489.66" xlink:href="#radial-gradient"/></defs><g id="Layer_7" data-name="Layer 7"><rect class="cls-1" width="1366" height="768"/><path class="cls-2" d="M0,768S19.53,661.3,232.77,665.5s352.06,49.62,487.14-12.06S879,620.56,882,679.88s355.32-61,401.66-42.37,85.67,60.16,85.67,60.16L1366,768Z"/><circle class="cls-3" cx="907.5" cy="523.5" r="48.5"/><circle class="cls-4" cx="88" cy="656" r="64"/><circle class="cls-5" cx="1284" cy="530" r="62"/><path class="cls-6" d="M0,768s80-88.84,213.5-87.92S441.87,759,612.94,720s836.08,48,687.57,48Z"/></g></svg>