<svg xmlns="http://www.w3.org/2000/svg" xmlns:xlink="http://www.w3.org/1999/xlink" viewBox="0 0 1366 768"><defs><style>.cls-1{fill:url(#linear-gradient);}.cls-2{fill:url(#radial-gradient);}.cls-3{fill:url(#radial-gradient-2);}.cls-4{fill:url(#radial-gradient-3);}.cls-5{fill:url(#radial-gradient-4);}.cls-6{fill:url(#radial-gradient-5);}</style><linearGradient id="linear-gradient" x1="231.32" y1="766.15" x2="1138.47" y2="-1.35" gradientUnits="userSpaceOnUse"><stop offset="0" stop-color="#16081e"/><stop offset="1" stop-color="#222238"/></linearGradient><radialGradient id="radial-gradient" cx="732.57" cy="335.23" r="173.23" gradientUnits="userSpaceOnUse"><stop offset="0" stop-color="#2c2c44"/><stop offset="1" stop-color="#16081e"/></radialGradient><radialGradient id="radial-gradient-2" cx="466.11" cy="249.19" r="337.02" xlink:href="#radial-gradient"/><radialGradient id="radial-gradient-3" cx="574.38" cy="362.59" r="317.71" gradientTransform="translate(0 5.52) scale(1 0.98)" xlink:href="#radial-gradient"/><radialGradient id="radial-gradient-4" cx="942.04" cy="460.74" r="367.13" gradientUnits="userSpaceOnUse"><stop offset="0.03" stop-color="#2c2c44"/><stop offset="1" stop-color="#16081e"/></radialGradient><radialGradient id="radial-gradient-5" cx="1153.45" cy="517.43" r="337.83" xlink:href="#radial-gradient"/></defs><g id="background"><rect class="cls-1" width="1366" height="768"/></g><g id="bg_shapes"><circle class="cls-2" cx="753" cy="276" r="108"/><path class="cls-3" d="M0,768s115-34,229-294S375,128,599,155,826,0,826,0H0Z"/><path class="cls-4" d="M0,199s221,155,382,76,384,52,208,295S0,768,0,768Z"/><path class="cls-5" d="M1362,0s-109-38-213,282S673,768,673,768h693V0Z"/><path class="cls-6" d="M1368,256s16.79-98.91-69,76.77S1091.9,652.62,983,708.51,895,771,895,771l471-3Z"/></g></svg>