<svg id="Layer_9" data-name="Layer 9" xmlns="http://www.w3.org/2000/svg" xmlns:xlink="http://www.w3.org/1999/xlink" viewBox="0 0 1366 768"><defs><style>.cls-1{fill:#16081e;}.cls-2{fill:url(#radial-gradient);}.cls-3{fill:url(#radial-gradient-2);}.cls-4{fill:url(#radial-gradient-3);}.cls-5{fill:url(#radial-gradient-4);}.cls-6{fill:url(#radial-gradient-5);}.cls-7{fill:url(#radial-gradient-6);}.cls-8{fill:url(#radial-gradient-7);}</style><radialGradient id="radial-gradient" cx="764.34" cy="369.34" r="775.19" gradientTransform="matrix(-1, 0.01, 0, -0.46, 1530.31, 530.41)" gradientUnits="userSpaceOnUse"><stop offset="0.03" stop-color="#2c2c44"/><stop offset="1" stop-color="#16081e"/></radialGradient><radialGradient id="radial-gradient-2" cx="418.13" cy="305" r="294.28" gradientTransform="matrix(1, 0, 0, 1, 0, 0)" xlink:href="#radial-gradient"/><radialGradient id="radial-gradient-3" cx="805.7" cy="288.15" r="511.58" gradientTransform="matrix(1, 0, 0, 1, 0, 0)" xlink:href="#radial-gradient"/><radialGradient id="radial-gradient-4" cx="916" cy="108.91" r="164.78" gradientTransform="matrix(1, 0, 0, 1, 0, 0)" xlink:href="#radial-gradient"/><radialGradient id="radial-gradient-5" cx="676.51" cy="342.79" r="590.31" gradientTransform="matrix(1, 0, 0, 1, 0, 0)" xlink:href="#radial-gradient"/><radialGradient id="radial-gradient-6" cx="738.3" cy="347.89" r="628.62" gradientTransform="matrix(1, 0, 0, 1, 0, 0)" xlink:href="#radial-gradient"/><radialGradient id="radial-gradient-7" cx="1119.74" cy="422.96" r="395.82" gradientTransform="matrix(1, 0, 0, 1, 0, 0)" xlink:href="#radial-gradient"/></defs><rect class="cls-1" width="1366" height="768"/><path class="cls-2" d="M0,52.23S195,4,213.5,162,34.84,355.77,112.92,539.38,411.33,541,684.66,597,1114,718.45,1173,675.72,1375,657,1313,530s-90-251-39-291,92-10.6,92-10.6V768H0Z"/><circle class="cls-3" cx="312.5" cy="93.5" r="73.5"/><circle class="cls-4" cx="1220" cy="131" r="71"/><circle class="cls-5" cx="1056" cy="68" r="31"/><circle class="cls-6" cx="1167" cy="535" r="103"/><path class="cls-7" d="M0,768S190,657,513,660s853,108,853,108Z"/><path class="cls-8" d="M1118.21,768S1136,704,1233,700s133-70.23,133-70.23V768Z"/></svg>